<svg xmlns="http://www.w3.org/2000/svg" viewBox="0 0 240 240" width="240" height="240" role="img" aria-label="Naptárlap">
<title>Naptárlap</title>
<!-- BistroTech Pop spot illustration, v0.1.0, 2026-09-26. Source: tools/build_svg.py.
     Outline 2.5 and a 7 px hard shadow in currentColor (ink by default, white on a dark
     ground when the page sets color: #fff); details ink 6 px; fills from the Pop blocks. -->
<g stroke-linejoin="round" stroke-linecap="round">
  <g transform="translate(7 7)" fill="currentColor" stroke="currentColor" stroke-width="2.5">
    <g>
      <rect x="42" y="48" width="156" height="160" rx="16"/>
      <rect x="78" y="32" width="12" height="32" rx="6"/>
      <rect x="150" y="32" width="12" height="32" rx="6"/>
    </g>
  </g>
  <g stroke="currentColor" stroke-width="2.5">
    <rect x="42" y="48" width="156" height="160" rx="16" fill="#38d6e0"/>
    <path d="M42 88V64A16 16 0 0 1 58 48H182A16 16 0 0 1 198 64V88Z" fill="#ff2d9b"/>
    <rect x="78" y="32" width="12" height="32" rx="6" fill="#0a0a0a"/>
    <rect x="150" y="32" width="12" height="32" rx="6" fill="#0a0a0a"/>
    <rect x="60" y="104" width="20" height="20" rx="5" fill="#ffffff" stroke="none"/>
    <rect x="92" y="104" width="20" height="20" rx="5" fill="#ffffff" stroke="none"/>
    <rect x="124" y="104" width="20" height="20" rx="5" fill="#ffffff" stroke="none"/>
    <rect x="156" y="104" width="20" height="20" rx="5" fill="#ffffff" stroke="none"/>
    <rect x="60" y="134" width="20" height="20" rx="5" fill="#ffffff" stroke="none"/>
    <rect x="92" y="134" width="20" height="20" rx="5" fill="#ffffff" stroke="none"/>
    <rect x="121" y="131" width="26" height="26" rx="7" fill="#ff2d9b"/>
    <rect x="156" y="134" width="20" height="20" rx="5" fill="#ffffff" stroke="none"/>
    <rect x="60" y="164" width="20" height="20" rx="5" fill="#ffffff" stroke="none"/>
    <rect x="92" y="164" width="20" height="20" rx="5" fill="#ffffff" stroke="none"/>
    <rect x="124" y="164" width="20" height="20" rx="5" fill="#ffffff" stroke="none"/>
    <rect x="156" y="164" width="20" height="20" rx="5" fill="#ffffff" stroke="none"/>
    <path d="M126.4 144.1L132 149L141.1 139.2" fill="none" stroke="#0a0a0a" stroke-width="6"/>
  </g>
</g>
</svg>
